<?xml version="1.0" standalone="no"?>
<!DOCTYPE svg PUBLIC "-//W3C//DTD SVG 20010904//EN"
 "http://www.w3.org/TR/2001/REC-SVG-20010904/DTD/svg10.dtd">
<svg version="1.0" xmlns="http://www.w3.org/2000/svg"
 width="1050.000000pt" height="1050.000000pt" viewBox="0 0 1050.000000 1050.000000"
 preserveAspectRatio="xMidYMid meet">
<metadata>
Created by potrace 1.14, written by Peter Selinger 2001-2017
</metadata>
<g transform="translate(0.000000,1050.000000) scale(0.100000,-0.100000)"
fill="#000000" stroke="none">
<path d="M6220 9645 c-25 -7 -124 -32 -220 -55 -96 -23 -256 -61 -355 -85 -99
-24 -274 -66 -390 -94 -115 -28 -232 -57 -260 -66 -52 -15 -95 -26 -180 -44
-101 -21 -827 -197 -1045 -253 -85 -21 -166 -41 -180 -44 -14 -3 -81 -18 -150
-35 -69 -16 -172 -41 -230 -55 -58 -14 -116 -30 -130 -35 -14 -4 -37 -11 -52
-14 -16 -3 -40 -7 -55 -10 -16 -3 -82 -19 -148 -35 -66 -16 -212 -52 -325 -79
-645 -156 -599 -143 -624 -176 -25 -32 -682 -949 -825 -1150 -47 -66 -108
-151 -135 -189 -28 -38 -51 -72 -50 -75 0 -6 -9 -19 -36 -49 -17 -19 -3 0
-349 -482 -185 -259 -256 -366 -262 -395 -5 -22 -15 -112 -24 -200 -16 -167
-25 -263 -50 -505 -18 -178 -50 -496 -70 -690 -35 -357 -56 -561 -65 -634 -6
-44 -10 -109 -10 -145 l1 -66 147 -100 c80 -55 208 -143 284 -195 249 -172
373 -255 400 -269 16 -8 28 -18 28 -22 0 -4 21 -21 48 -38 26 -16 92 -62 147
-100 55 -39 134 -93 175 -121 l75 -51 -6 -182 c-4 -100 -12 -298 -19 -440 -7
-142 -11 -259 -9 -261 2 -1 384 -145 849 -320 465 -175 859 -323 875 -329 17
-6 35 -12 42 -13 7 -1 27 -9 44 -18 41 -21 61 -20 85 2 10 9 145 125 299 256
154 131 290 248 303 260 l23 20 -20 -54 c-11 -30 -81 -244 -156 -475 -76 -231
-158 -484 -184 -563 l-47 -142 467 0 468 0 13 27 c8 16 117 204 243 418 126
215 253 435 284 490 30 55 58 102 61 105 4 3 10 15 14 28 4 12 12 22 17 22 6
0 8 4 5 8 -3 5 4 19 15 31 12 12 22 29 23 36 1 8 9 22 17 32 9 10 44 68 79
128 97 168 200 344 233 400 17 28 40 68 52 90 13 22 69 119 126 215 56 96 121
208 143 248 l41 73 55 -5 c30 -3 100 -13 155 -21 109 -17 493 -72 590 -85 33
-5 116 -16 185 -26 69 -10 140 -18 158 -18 17 -1 32 -3 32 -6 0 -4 10 -7 23
-7 38 -2 101 -10 137 -17 19 -3 53 -8 75 -11 22 -3 51 -7 65 -9 28 -4 81 24
190 99 78 54 332 229 880 605 179 122 329 226 334 230 4 5 -18 57 -49 117 -32
59 -80 151 -108 203 -27 52 -63 119 -78 148 -16 29 -29 55 -29 57 0 2 21 7 48
10 26 3 126 19 222 35 96 16 198 32 225 35 28 3 93 12 145 20 105 17 216 34
420 65 74 11 176 27 225 35 50 8 111 17 136 21 53 7 42 -16 128 259 122 390
155 496 186 595 19 58 57 179 85 270 28 91 57 183 64 205 30 91 58 179 106
335 28 91 74 237 101 325 28 88 56 178 63 200 7 22 21 65 31 96 l18 57 -55 73
c-30 41 -135 182 -233 314 -204 275 -685 920 -754 1012 -28 38 -60 68 -81 77
-45 20 -502 197 -515 200 -5 1 -27 10 -49 19 -21 9 -42 17 -47 17 -5 0 -17 4
-27 9 -22 12 -154 65 -167 67 -5 2 -39 14 -74 28 -36 14 -71 26 -78 26 -7 0
-13 5 -13 10 0 6 -3 9 -7 8 -8 -1 -32 7 -68 23 -17 8 -284 112 -475 186 -36
13 -103 40 -150 58 -47 18 -128 50 -180 70 -52 21 -176 69 -275 107 -99 39
-202 77 -230 85 -27 8 -72 26 -98 39 -26 14 -52 22 -57 19 -6 -4 -10 -3 -10 2
0 9 -14 15 -230 98 -80 31 -178 69 -219 86 -80 32 -122 35 -191 14z m-130
-418 c0 -7 -11 -111 -26 -232 -14 -121 -29 -256 -34 -300 -5 -44 -13 -120 -19
-170 -15 -119 -45 -384 -67 -570 -9 -82 -22 -186 -28 -230 l-11 -79 -140 -33
c-77 -17 -169 -39 -205 -47 -36 -9 -105 -25 -155 -36 -162 -37 -229 -52 -305
-72 -79 -21 -97 -25 -144 -34 -16 -2 -33 -7 -36 -9 -4 -3 -25 -7 -46 -11 -35
-5 -328 -71 -489 -109 -33 -8 -100 -24 -150 -35 -49 -12 -117 -27 -150 -35
-172 -41 -845 -195 -852 -195 -5 0 -37 40 -72 89 -34 49 -78 106 -97 128 -19
21 -34 43 -34 49 0 6 -8 20 -18 32 -9 11 -23 28 -29 39 -29 42 -570 806 -629
887 -24 32 -41 62 -39 67 3 4 20 11 38 14 46 10 427 102 522 126 44 11 94 23
110 26 17 2 34 9 39 14 6 5 21 9 34 9 23 0 382 84 512 120 36 10 88 23 115 29
47 10 309 73 670 161 216 53 474 117 565 141 41 11 86 21 100 23 14 2 54 10
90 19 85 21 392 95 655 159 116 27 230 56 255 63 60 17 70 17 70 2z m537 -69
c169 -65 302 -115 343 -128 14 -4 45 -17 70 -28 25 -12 162 -67 305 -122 143
-56 287 -112 320 -125 33 -13 103 -40 155 -60 52 -20 147 -57 210 -82 134 -51
342 -132 450 -173 41 -15 127 -49 190 -75 63 -25 120 -47 125 -49 6 -1 27 -10
49 -19 21 -9 42 -17 47 -17 22 0 3 -18 -62 -60 -38 -25 -83 -55 -98 -67 -16
-13 -32 -23 -35 -23 -4 0 -12 -5 -19 -10 -7 -6 -124 -84 -262 -173 -340 -222
-638 -417 -1072 -704 -201 -134 -370 -243 -375 -243 -4 0 -8 -4 -8 -10 0 -5
-7 -10 -15 -10 -8 0 -15 -4 -15 -9 0 -5 -15 -16 -32 -25 -18 -9 -63 -36 -100
-61 l-68 -45 -92 138 c-51 75 -156 234 -235 352 l-142 215 19 165 c11 91 24
206 29 255 6 50 24 207 41 350 16 143 37 321 46 395 8 74 24 205 35 290 10 85
19 170 19 188 0 17 4 32 10 32 5 0 80 -28 167 -62z m2770 -1278 c176 -238 514
-692 589 -792 41 -53 74 -100 74 -105 0 -9 -53 -66 -190 -208 -47 -49 -232
-243 -410 -430 -178 -187 -369 -387 -425 -445 -56 -58 -139 -145 -186 -195
-155 -166 -224 -238 -280 -294 -31 -31 -155 -159 -275 -286 -121 -126 -226
-236 -234 -245 -13 -14 -54 42 -392 550 -208 311 -407 608 -444 660 -36 52
-68 102 -72 110 -3 8 -11 21 -18 30 -33 41 -184 271 -184 280 0 5 -4 10 -10
10 -27 0 -3 29 54 68 35 23 66 42 69 42 3 0 81 50 173 111 93 62 211 140 264
174 52 34 223 146 380 250 157 103 375 246 485 319 110 72 232 153 272 181 39
27 96 65 125 82 29 18 152 98 272 177 l219 144 22 -27 c12 -14 67 -87 122
-161z m-7238 28 c17 -28 189 -273 241 -343 21 -27 128 -178 239 -334 140 -197
198 -287 189 -291 -15 -8 -43 -15 -258 -65 -85 -19 -242 -56 -349 -80 -107
-25 -196 -44 -198 -42 -2 2 3 67 11 143 8 76 22 216 31 309 9 94 22 231 30
305 14 138 37 385 38 408 0 18 11 15 26 -10z m-403 -155 c-3 -16 -10 -82 -16
-148 -5 -66 -17 -183 -25 -260 -7 -77 -21 -214 -30 -305 -8 -91 -20 -213 -26
-272 l-12 -107 -51 -11 c-28 -6 -78 -17 -111 -25 -33 -8 -132 -30 -220 -51
-88 -20 -223 -52 -299 -70 -77 -19 -142 -32 -144 -29 -4 4 16 33 105 150 49
64 248 341 664 924 90 127 165 231 167 231 2 0 1 -12 -2 -27z m4104 -515 c0
-12 -6 -74 -14 -137 -8 -64 -22 -181 -31 -261 -18 -156 -48 -407 -66 -559
l-12 -93 -251 -166 c-460 -303 -556 -367 -573 -382 -7 -5 -17 -10 -23 -10 -5
0 -10 -4 -10 -9 0 -5 -8 -11 -17 -13 -10 -3 -110 -67 -223 -141 -112 -75 -208
-133 -211 -129 -4 4 -114 158 -245 342 -131 184 -349 491 -485 683 -136 191
-246 347 -243 347 5 0 345 78 587 135 34 8 91 21 127 29 36 8 103 24 150 35
47 11 195 45 330 76 135 31 252 59 260 62 8 3 21 7 28 9 7 1 34 7 60 13 26 6
79 18 117 25 39 8 111 24 160 35 50 12 131 30 180 42 50 11 119 27 155 35 36
8 99 23 140 33 102 25 110 25 110 -1z m458 -430 l111 -166 -137 -90 c-75 -49
-142 -92 -148 -95 -6 -4 -9 4 -7 21 1 15 12 101 22 192 11 91 23 200 27 243 4
43 10 75 14 70 4 -4 57 -83 118 -175z m-3052 -458 c542 -765 633 -892 692
-975 95 -131 157 -218 165 -232 5 -8 -21 -31 -75 -66 -46 -30 -211 -139 -368
-242 -157 -104 -337 -222 -400 -263 -63 -41 -116 -78 -118 -83 -2 -5 -9 -9
-15 -9 -7 0 -36 -18 -65 -40 -29 -22 -55 -40 -58 -40 -3 0 -68 -41 -144 -91
l-140 -91 -257 243 c-142 134 -342 323 -444 421 l-186 178 8 58 c5 32 13 112
18 177 6 66 17 188 25 270 9 83 23 222 31 310 9 88 23 221 31 296 7 75 14 150
14 166 0 24 5 32 23 36 12 3 171 40 352 82 336 77 450 104 564 131 36 9 72 17
80 19 9 2 27 8 41 13 14 6 28 7 31 3 4 -3 91 -125 195 -271z m3470 -172 c59
-90 113 -168 119 -173 7 -6 15 -20 19 -33 4 -12 11 -22 15 -22 5 0 14 -13 21
-30 7 -16 16 -30 21 -30 5 0 9 -4 9 -10 0 -5 8 -19 18 -30 9 -11 26 -36 37
-55 11 -19 39 -61 63 -95 23 -33 42 -65 42 -70 0 -6 5 -10 10 -10 6 0 10 -6
10 -14 0 -8 4 -16 8 -18 9 -3 72 -93 72 -102 0 -3 153 -235 340 -516 187 -280
340 -512 340 -514 0 -2 31 -62 68 -133 128 -240 155 -293 151 -296 -2 -2 -53
-37 -114 -78 -60 -42 -175 -120 -255 -175 -80 -55 -203 -140 -275 -189 -71
-49 -142 -98 -156 -109 -14 -12 -36 -28 -49 -36 -12 -8 -33 -23 -45 -32 -13
-10 -28 -18 -34 -18 -5 0 -14 -6 -18 -14 -10 -17 -51 -38 -62 -32 -4 3 -32 8
-62 11 -30 3 -61 8 -70 10 -9 3 -30 7 -45 10 -16 2 -76 11 -134 20 -58 8 -138
20 -178 25 -41 5 -102 14 -135 19 -34 6 -127 19 -207 31 -80 11 -185 27 -235
35 -49 7 -118 17 -153 20 -36 4 -66 13 -68 20 -3 6 0 54 5 106 22 198 41 363
70 614 17 143 38 319 46 390 8 72 24 207 35 300 11 94 27 231 35 305 9 74 20
169 26 210 5 41 13 118 19 170 5 52 16 149 24 215 9 66 16 121 16 123 0 2 542
362 547 362 0 0 50 -73 109 -162z m-5130 50 c-3 -29 -12 -127 -21 -218 -9 -91
-22 -228 -30 -305 -8 -77 -17 -176 -21 -220 -8 -107 -9 -110 -35 -91 -12 8
-63 55 -113 103 -50 49 -174 167 -276 262 -102 95 -221 208 -266 251 l-81 77
41 12 c23 6 52 14 66 17 14 2 45 9 70 14 67 13 570 129 605 139 64 19 67 16
61 -41z m8262 -40 c-16 -51 -50 -158 -75 -238 -130 -415 -157 -504 -188 -600
-18 -58 -50 -159 -70 -225 -21 -66 -41 -125 -46 -131 -5 -6 -46 -16 -91 -23
-46 -7 -123 -19 -173 -27 -49 -7 -164 -25 -255 -39 -91 -14 -199 -31 -240 -39
-41 -8 -104 -17 -139 -21 l-63 -7 20 29 c11 15 60 69 109 119 48 50 185 192
303 315 118 123 265 276 326 339 183 190 548 574 579 608 15 18 29 32 30 32 2
0 -11 -42 -27 -92z m-9018 -676 c19 -18 76 -72 125 -120 50 -48 164 -157 255
-243 91 -85 184 -173 207 -195 l42 -39 -9 -90 c-4 -49 -15 -162 -24 -250 -29
-281 -45 -446 -61 -620 -25 -263 -44 -437 -49 -442 -2 -3 -96 59 -209 136
-113 78 -207 141 -211 141 -3 0 -14 7 -23 15 -25 22 -106 80 -332 235 l-193
133 6 36 c5 37 25 220 51 486 62 615 85 837 100 974 8 68 12 129 8 135 -4 6
58 -50 137 -124 79 -74 160 -150 180 -168z m4815 46 c-8 -73 -22 -191 -30
-263 -8 -71 -28 -247 -44 -390 -55 -467 -61 -518 -81 -685 -10 -91 -22 -193
-26 -228 -13 -129 -1 -138 -194 135 -176 248 -263 367 -287 391 -7 7 -13 19
-13 25 0 7 -8 20 -17 29 -28 26 -43 46 -43 58 0 5 -4 10 -10 10 -5 0 -10 4
-10 10 0 5 -22 40 -49 77 -26 38 -87 122 -134 188 l-85 120 117 77 c64 42 122
82 128 88 7 6 30 20 50 32 21 13 44 28 51 35 8 8 28 21 45 29 29 15 562 364
617 403 34 25 34 19 15 -141z m-1214 -875 c202 -286 416 -584 437 -608 12 -14
19 -25 16 -25 -5 0 15 -27 58 -79 6 -7 45 -63 86 -124 42 -61 122 -175 178
-254 117 -162 119 -138 -14 -207 -39 -20 -100 -53 -133 -72 -34 -19 -65 -34
-70 -34 -5 0 -9 -5 -9 -12 0 -6 -3 -8 -7 -5 -3 4 -11 3 -17 -2 -6 -5 -87 -48
-181 -96 -93 -48 -174 -91 -180 -95 -28 -20 -328 -171 -379 -190 l-58 -22 -62
59 c-33 32 -99 95 -146 139 -47 44 -130 123 -185 175 -55 53 -188 178 -295
279 -107 101 -237 223 -288 272 -51 48 -95 88 -97 88 -3 0 -25 21 -50 46 -39
39 -43 47 -31 60 8 8 19 14 25 14 6 0 11 5 11 10 0 6 7 10 15 10 8 0 15 4 15
10 0 5 3 9 8 8 4 -1 39 18 77 43 129 84 907 596 1079 711 39 26 76 47 82 47 6
1 58 -65 115 -146z m-2238 -462 c119 -113 214 -208 210 -212 -8 -7 -316 -210
-585 -385 -112 -73 -128 -81 -128 -62 0 12 9 109 20 217 11 108 27 268 35 356
9 88 22 222 30 298 8 75 15 144 15 153 0 10 38 -20 93 -72 51 -49 191 -181
310 -293z m589 -556 c51 -49 133 -126 182 -170 48 -44 122 -114 164 -156 63
-61 348 -332 690 -653 29 -27 51 -53 50 -56 -2 -4 -86 -78 -188 -166 -330
-283 -485 -416 -501 -433 -9 -9 -29 -27 -45 -40 -16 -13 -44 -37 -62 -53 l-33
-28 -37 19 c-20 10 -226 89 -457 176 -231 87 -442 167 -470 177 -27 10 -66 25
-85 32 -19 7 -111 41 -203 76 l-168 63 5 96 c3 53 8 168 11 256 3 88 8 186 12
219 l6 59 341 224 c188 124 418 276 511 338 94 62 173 113 177 112 3 -1 49
-42 100 -92z m2312 -753 c-6 -4 -24 -32 -40 -62 -16 -30 -33 -58 -39 -62 -5
-4 -6 -8 -2 -8 4 0 -1 -10 -13 -22 -11 -12 -25 -37 -32 -55 -7 -18 -16 -33
-20 -33 -4 0 -8 -6 -8 -12 0 -13 -11 -33 -133 -231 -37 -60 -67 -110 -67 -112
0 -2 -37 -66 -82 -143 -46 -76 -193 -329 -328 -560 l-245 -421 -112 -1 -112 0
13 43 c8 23 33 98 55 167 23 69 103 312 178 540 181 555 183 559 207 574 20
13 69 38 361 191 72 37 150 80 175 96 64 39 244 128 250 122 2 -2 0 -7 -6 -11z"/>
</g>
</svg>
