<svg version="1.0" xmlns="http://www.w3.org/2000/svg">

<symbol id="logo" fill-rule="evenodd" clip-rule="evenodd" stroke-linejoin="miter" stroke-miterlimit="1.414">

<g transform="translate(0.000000,883.000000) scale(0.100000,-0.100000)" stroke="none">
<path d="M6220 8815 c-25 -7 -124 -32 -220 -55 -96 -23 -256 -61 -355 -85 -99
-24 -274 -67 -390 -94 -219 -53 -304 -76 -343 -92 -13 -5 -35 -9 -49 -9 -14 0
-42 -5 -62 -10 -20 -6 -110 -28 -201 -49 -91 -22 -239 -58 -330 -80 -91 -22
-259 -63 -375 -91 -115 -28 -221 -55 -235 -60 -14 -5 -41 -12 -60 -15 -19 -3
-80 -17 -135 -30 -286 -69 -385 -94 -394 -99 -5 -3 -25 -8 -45 -10 -19 -3
-100 -21 -178 -40 -79 -19 -235 -57 -348 -85 -649 -157 -599 -143 -624 -176
-13 -16 -184 -255 -381 -530 -197 -275 -421 -587 -497 -693 -76 -106 -145
-206 -153 -222 -8 -15 -18 -30 -22 -32 -5 -1 -26 -28 -48 -58 -21 -30 -154
-215 -294 -410 -185 -259 -256 -366 -262 -395 -5 -22 -15 -112 -24 -200 -16
-167 -25 -263 -50 -505 -18 -178 -50 -496 -70 -690 -35 -357 -56 -561 -65
-634 -6 -44 -10 -109 -10 -145 l1 -66 147 -100 c80 -55 208 -143 284 -195 311
-215 378 -260 386 -260 5 0 19 -10 32 -23 22 -20 191 -139 380 -267 l75 -51
-6 -182 c-4 -100 -12 -298 -19 -440 -7 -142 -11 -259 -9 -261 12 -9 1747 -659
1759 -659 8 0 30 -9 48 -19 18 -10 40 -18 50 -18 10 0 141 106 292 236 151
130 296 254 323 276 l47 40 -19 -54 c-11 -29 -81 -242 -156 -473 -76 -231
-158 -484 -184 -563 l-47 -142 467 0 468 0 13 27 c8 16 117 203 243 418 126
215 253 435 284 490 30 55 59 103 65 107 6 4 8 8 3 8 -7 0 39 79 52 90 4 3 12
16 19 30 7 14 26 48 43 75 18 28 72 120 122 205 49 85 112 193 139 240 28 47
60 103 73 125 13 22 69 119 126 215 56 96 121 208 143 248 l41 73 60 -6 c33
-3 101 -12 150 -20 50 -8 144 -21 210 -30 66 -9 176 -25 245 -35 69 -10 179
-26 245 -35 66 -9 145 -20 175 -25 54 -10 121 -18 190 -25 19 -2 67 -9 105
-15 107 -16 134 -13 190 23 27 17 185 124 350 237 165 114 446 307 625 430
179 122 329 226 334 230 4 5 -18 57 -49 117 -32 59 -80 151 -108 203 -27 52
-63 119 -78 148 -16 29 -29 55 -29 57 0 2 21 7 48 10 26 3 128 19 227 35 99
16 245 38 325 50 80 12 186 27 235 35 50 8 151 24 225 35 74 11 176 27 225 35
50 8 111 17 136 21 53 7 42 -16 128 259 122 390 155 496 186 595 19 58 57 179
85 270 28 91 57 183 64 205 30 91 58 179 106 335 28 91 74 237 101 325 28 88
56 178 63 200 7 22 21 65 31 96 l18 57 -55 73 c-30 41 -135 182 -233 314 -204
275 -685 920 -754 1012 -28 38 -60 68 -81 77 -59 26 -634 248 -650 251 -8 2
-42 15 -75 30 -33 15 -67 28 -75 31 -42 10 -166 59 -171 67 -3 5 -10 9 -15 9
-11 0 0 -4 -229 86 -99 38 -223 87 -275 107 -52 20 -133 52 -180 70 -47 18
-128 50 -180 70 -52 21 -176 69 -275 107 -99 39 -196 75 -215 80 -19 6 -91 34
-160 63 -69 29 -181 74 -250 100 -69 27 -163 63 -209 82 -90 35 -130 39 -201
18z m-130 -418 c0 -7 -11 -111 -26 -232 -14 -121 -29 -256 -34 -300 -5 -44
-13 -120 -19 -170 -15 -119 -45 -384 -67 -570 -9 -82 -22 -186 -28 -230 l-11
-79 -140 -33 c-77 -17 -169 -39 -205 -47 -36 -9 -105 -25 -155 -36 -189 -43
-233 -53 -315 -75 -47 -13 -121 -30 -165 -39 -70 -13 -364 -79 -540 -121 -33
-8 -100 -24 -150 -35 -49 -12 -117 -27 -150 -35 -172 -41 -845 -195 -852 -195
-5 0 -37 40 -72 89 -34 49 -76 104 -93 123 -16 18 -34 42 -38 53 -4 11 -59 92
-122 180 -63 88 -204 286 -313 440 -109 154 -218 307 -241 339 -24 32 -41 62
-39 67 3 4 20 11 38 14 17 4 124 29 237 56 113 28 252 61 310 75 58 13 113 29
122 34 10 6 27 10 39 10 21 0 386 86 509 120 36 10 88 23 115 29 77 16 701
168 995 241 161 40 257 64 390 94 36 9 160 38 275 66 116 28 305 74 420 102
116 27 230 56 255 63 60 17 70 17 70 2z m547 -73 c92 -36 211 -80 263 -98 52
-18 115 -43 140 -54 25 -12 162 -67 305 -122 143 -56 287 -112 320 -125 33
-13 103 -40 155 -60 52 -20 147 -57 210 -82 191 -74 382 -147 595 -228 39 -14
99 -39 135 -55 36 -15 82 -34 103 -41 20 -7 37 -15 37 -19 0 -4 -132 -94 -199
-135 -9 -5 -18 -13 -21 -16 -3 -4 -32 -23 -65 -42 -33 -20 -179 -115 -325
-211 -146 -96 -339 -223 -430 -283 -417 -274 -809 -534 -846 -562 -23 -17 -44
-28 -48 -24 -3 3 -6 1 -6 -5 0 -7 -7 -12 -15 -12 -8 0 -15 -4 -15 -8 0 -5 -15
-16 -32 -25 -18 -9 -63 -37 -100 -62 l-68 -45 -92 138 c-51 75 -156 234 -235
352 l-142 215 19 165 c11 91 24 206 29 255 6 50 24 207 41 350 16 143 37 321
46 395 8 74 24 205 35 290 10 85 19 170 19 188 0 17 4 32 10 32 5 0 85 -29
177 -66z m2760 -1274 c176 -238 514 -692 589 -792 41 -53 74 -100 74 -105 0
-9 -53 -66 -190 -208 -47 -49 -232 -243 -410 -430 -178 -187 -369 -387 -425
-445 -56 -58 -141 -148 -190 -200 -143 -152 -216 -229 -276 -289 -31 -31 -155
-159 -275 -286 -121 -126 -226 -236 -234 -245 -13 -14 -55 45 -405 570 -215
322 -416 622 -448 666 -31 45 -57 85 -57 88 0 4 -11 19 -25 34 -14 15 -25 30
-25 35 0 4 -18 33 -41 65 -69 97 -109 161 -109 172 0 5 -4 10 -10 10 -27 0 -3
30 54 68 35 23 66 42 69 42 3 0 74 46 158 102 85 56 217 143 294 193 77 50
228 149 335 220 107 71 312 205 455 299 143 94 296 196 340 227 44 31 85 58
90 60 14 5 115 70 334 215 l184 122 22 -27 c12 -14 67 -87 122 -161z m-7238
28 c17 -28 189 -273 241 -343 21 -27 128 -178 239 -334 140 -197 198 -287 189
-291 -15 -8 -43 -15 -258 -65 -85 -19 -242 -56 -349 -80 -107 -25 -196 -44
-198 -42 -2 2 3 67 11 143 8 76 22 216 31 309 9 94 22 231 30 305 14 138 37
385 38 408 0 18 11 15 26 -10z m-403 -155 c-3 -16 -10 -82 -16 -148 -5 -66
-17 -183 -25 -260 -7 -77 -21 -214 -30 -305 -8 -91 -20 -213 -26 -272 l-12
-107 -51 -11 c-28 -6 -78 -17 -111 -25 -270 -63 -373 -86 -455 -105 -52 -11
-119 -28 -148 -37 -29 -9 -55 -13 -58 -10 -6 6 27 57 56 88 8 8 39 49 68 90
29 41 149 207 266 371 116 163 286 400 377 527 90 127 165 231 167 231 2 0 1
-12 -2 -27z m4104 -515 c0 -12 -6 -74 -14 -137 -8 -64 -22 -181 -31 -261 -18
-156 -48 -407 -66 -559 l-12 -93 -251 -166 c-138 -91 -294 -193 -346 -227 -52
-34 -102 -68 -110 -76 -8 -9 -55 -40 -105 -70 -49 -30 -179 -113 -290 -186
-110 -73 -203 -129 -206 -125 -4 4 -114 158 -245 342 -131 184 -349 491 -485
683 -136 191 -246 347 -243 347 5 0 392 89 587 135 34 8 103 24 152 35 50 11
119 27 155 36 36 8 169 39 295 69 127 29 266 62 310 73 44 12 116 28 160 37
44 8 116 24 160 34 143 34 269 62 335 77 36 8 99 23 140 33 102 25 110 25 110
-1z m458 -430 l111 -166 -137 -90 c-75 -49 -142 -92 -148 -95 -6 -4 -9 4 -7
21 1 15 12 101 22 192 11 91 23 200 27 243 4 43 10 75 14 70 4 -4 57 -83 118
-175z m-3191 -263 c27 -38 162 -227 298 -420 308 -434 542 -762 626 -880 36
-49 68 -95 72 -102 5 -8 -27 -34 -90 -76 -193 -127 -582 -383 -783 -516 -112
-75 -219 -145 -238 -156 -18 -11 -87 -55 -153 -99 l-119 -78 -257 243 c-142
134 -342 323 -444 421 l-186 178 8 58 c5 32 13 112 18 177 6 66 17 188 25 270
9 83 23 222 31 310 9 88 23 221 31 296 7 75 14 150 14 166 0 24 5 32 23 36 12
3 171 40 352 82 182 42 366 85 410 95 44 10 114 26 155 35 41 10 91 23 110 30
19 7 38 10 41 7 3 -4 28 -38 56 -77z m3649 -427 c82 -123 152 -224 156 -226 5
-2 8 -10 8 -17 0 -7 6 -15 13 -18 7 -2 21 -22 32 -43 11 -22 22 -41 25 -44 15
-15 90 -132 90 -140 0 -6 5 -10 10 -10 6 0 10 -6 10 -14 0 -8 4 -16 8 -18 9
-3 72 -93 72 -102 0 -3 153 -235 340 -516 187 -280 340 -512 340 -514 0 -2 31
-62 68 -133 128 -240 155 -293 151 -296 -2 -2 -53 -37 -114 -78 -60 -42 -175
-120 -255 -175 -80 -55 -197 -135 -260 -179 -63 -43 -154 -106 -201 -141 -48
-35 -89 -64 -92 -64 -3 0 -18 -11 -33 -25 -22 -20 -34 -24 -57 -19 -17 3 -44
8 -61 9 -28 3 -51 7 -111 19 -11 2 -38 6 -60 9 -22 4 -85 13 -140 21 -55 8
-149 22 -210 30 -160 23 -376 55 -480 71 -49 7 -118 17 -153 20 -36 4 -66 13
-68 20 -3 6 0 54 5 106 22 198 41 363 70 614 17 143 38 319 46 390 8 72 24
207 35 300 11 94 27 231 35 305 9 74 20 169 26 210 5 41 13 118 19 170 5 52
16 149 24 215 9 66 16 121 16 123 0 2 542 362 547 362 0 0 68 -100 149 -222z
m-5170 110 c-3 -29 -12 -127 -21 -218 -9 -91 -22 -228 -30 -305 -8 -77 -17
-176 -21 -220 -8 -107 -9 -110 -35 -91 -12 8 -63 55 -113 103 -50 49 -176 169
-281 267 -104 98 -224 211 -266 250 l-76 73 46 13 c25 8 55 15 66 16 23 2 625
140 670 153 64 19 67 16 61 -41z m8262 -40 c-16 -51 -50 -158 -75 -238 -130
-415 -157 -504 -188 -600 -18 -58 -50 -159 -70 -225 -21 -66 -41 -125 -46
-131 -5 -6 -46 -16 -91 -23 -46 -7 -123 -19 -173 -27 -49 -7 -164 -25 -255
-39 -91 -14 -199 -31 -240 -39 -41 -8 -104 -17 -139 -21 -62 -6 -63 -6 -49 14
22 31 95 109 267 286 223 229 1003 1044 1056 1103 15 18 29 32 30 32 2 0 -11
-42 -27 -92z m-8948 -744 c58 -55 148 -141 200 -190 52 -49 135 -128 185 -175
49 -47 109 -103 132 -125 l42 -39 -9 -90 c-4 -49 -15 -162 -24 -250 -29 -281
-45 -446 -61 -620 -25 -263 -44 -437 -49 -442 -2 -3 -105 65 -228 149 -122 84
-237 162 -255 173 -17 11 -46 32 -65 46 -18 14 -120 86 -227 159 l-193 133 6
36 c5 37 25 220 51 486 62 615 85 837 100 974 8 68 12 129 8 135 -7 11 205
-186 387 -360z m4745 114 c-8 -73 -22 -191 -30 -263 -8 -71 -28 -247 -44 -390
-55 -467 -61 -518 -81 -685 -10 -91 -22 -193 -26 -228 -13 -130 0 -139 -204
149 -102 144 -209 290 -237 326 -29 36 -53 71 -53 79 0 8 -4 14 -8 14 -5 0
-43 51 -84 113 -42 61 -117 168 -166 237 l-90 125 123 81 c68 45 139 93 157
108 19 14 40 26 46 26 7 0 12 4 12 10 0 5 19 19 41 31 36 18 561 359 629 408
34 25 34 19 15 -141z m-1225 -860 c52 -73 168 -236 259 -363 90 -126 177 -248
193 -271 15 -23 34 -47 43 -54 8 -7 15 -17 15 -22 0 -5 11 -21 25 -36 14 -15
38 -47 52 -72 15 -25 88 -131 164 -237 l137 -192 -24 -15 c-13 -9 -25 -16 -27
-16 -2 0 -66 -34 -143 -76 -76 -42 -222 -119 -324 -171 -102 -52 -189 -98
-195 -102 -26 -21 -327 -172 -379 -191 l-58 -22 -62 59 c-33 32 -99 95 -146
139 -47 44 -130 123 -185 175 -55 53 -188 178 -295 279 -107 101 -237 223
-288 272 -51 48 -97 88 -102 88 -5 0 -26 21 -49 47 l-40 47 27 23 c15 13 31
23 35 23 5 0 55 30 110 67 56 37 174 114 262 172 216 141 735 483 815 536 36
24 70 44 76 44 6 1 53 -59 104 -131z m-2227 -477 c119 -113 214 -208 210 -212
-8 -7 -316 -210 -585 -385 -112 -73 -128 -81 -128 -62 0 12 9 109 20 217 11
108 27 268 35 356 9 88 22 222 30 298 8 75 15 144 15 153 0 10 38 -20 93 -72
51 -49 191 -181 310 -293z m579 -546 c46 -45 121 -116 168 -159 47 -43 128
-120 180 -171 77 -74 410 -389 698 -659 29 -27 51 -53 50 -56 -2 -4 -86 -78
-188 -166 -349 -299 -485 -417 -541 -468 -105 -96 -91 -90 -135 -67 -22 10
-228 90 -459 177 -231 86 -442 166 -470 176 -27 10 -66 25 -85 32 -19 7 -111
41 -203 76 l-168 63 5 96 c3 53 8 168 11 256 3 88 8 186 12 219 l6 59 341 224
c188 124 418 276 511 338 94 62 173 113 177 112 4 -1 44 -38 90 -82z m2294
-802 c-18 -32 -42 -74 -52 -93 -10 -19 -25 -40 -31 -48 -7 -7 -13 -20 -13 -27
0 -7 -6 -20 -12 -27 -7 -7 -24 -36 -38 -63 -14 -27 -34 -63 -45 -80 -27 -40
-135 -216 -135 -220 0 -2 -37 -66 -82 -143 -46 -76 -193 -329 -328 -560 l-245
-421 -112 -1 -112 0 13 43 c8 23 33 98 55 167 23 69 103 312 178 540 168 515
183 557 197 568 6 5 74 42 151 82 77 40 199 105 270 143 127 69 368 196 372
197 1 0 -13 -26 -31 -57z"/>
</g>
</symbol>

</svg>
